# xmcd
#
# Track frame offsets: 
#        150
#        12394
#        25837
#        34956
#        47901
#        60415
#        73689
#        87759
#        100089
#        112521
#        125723
#        137361
#        149399
#        160890
#        171913
#        188594
#        204227
#        217146
#        227352
#        240528
#        251894
#        265100
#        275155
#        284283
#        297939
#
# Disc length: 4178 seconds
#
# Revision: 0
# Processed by: cddbd v1.5.2PL0 Copyright (c) Steve Scherf et al.
# Submitted via: ExactAudioCopy v1.0b1
#
DISCID=6b105019
DTITLE=Red Foley - Chattanoogie Shoe Shine Boy
DYEAR=2007
DGENRE=Country
TTITLE0=Tennessee Saturday Night
TTITLE1=Smoke On The Water
TTITLE2=Shame On You
TTITLE3=Harriet
TTITLE4=It's The Mileage That's Slowing Us Down
TTITLE5=Love Bug Itch
TTITLE6=Freight Train Boogie
TTITLE7=Careless Kisses
TTITLE8=Pals Of The Saddle
TTITLE9=Old Kentucky Fox Chase
TTITLE10=No Help Wanted
TTITLE11=Satins And Lace
TTITLE12=Slaves Of A Hopeless Love Affair
TTITLE13=Sugarfoot Rag
TTITLE14=Steal Away
TTITLE15=Tennessee Polka
TTITLE16=Two Cents, Three Eggs And A Postcard
TTITLE17=When God Dips His Love On My Heart
TTITLE18=There's A Blue Star Shining Bright
TTITLE19=Hot Rod Race
TTITLE20=Hang Your Head In Shame
TTITLE21=Don't Be Ashamed Of Your Age
TTITLE22=Chocolate Ice Cream Cone
TTITLE23=Blues In My Heart
TTITLE24=At Mail Call Today
EXTD=
EXTT0=
EXTT1=
EXTT2=
EXTT3=
EXTT4=
EXTT5=
EXTT6=
EXTT7=
EXTT8=
EXTT9=
EXTT10=
EXTT11=
EXTT12=
EXTT13=
EXTT14=
EXTT15=
EXTT16=
EXTT17=
EXTT18=
EXTT19=
EXTT20=
EXTT21=
EXTT22=
EXTT23=
EXTT24=
PLAYORDER=
